# xmcd
#
# Track frame offsets: 
#        150
#        12165
#        26088
#        39023
#        57745
#        74218
#        92850
#        107670
#        121870
#        135090
#        149740
#
# Disc length: 2193 seconds
#
# Revision: 2
# Processed by: cddbd v1.5.2PL0 Copyright (c) Steve Scherf et al.
# Submitted via: ExactAudioCopyFreeDBPlugin 1.0
#
DISCID=9b088f0b
DTITLE=LEE HAZLEWOOD - The Very Special World Of [reissue on cd in 200
DTITLE=7]
DYEAR=1966
DGENRE=Rock
TTITLE0=For one moment
TTITLE1=When a fool loves a fool
TTITLE2=Not the lovin' kind
TTITLE3=Your sweet love
TTITLE4=Sand
TTITLE5=My autumn's done come
TTITLE6=These boots are made for walkin'
TTITLE7=I move around
TTITLE8=So long, babe
TTITLE9=Bugles in the afternoon
TTITLE10=My baby cried all night long
EXTD=
EXTT0=
EXTT1=
EXTT2=
EXTT3=
EXTT4=
EXTT5=
EXTT6=
EXTT7=
EXTT8=
EXTT9=
EXTT10=
PLAYORDER=
